# xmcd CD database file
#
# Track frame offsets:
#	150
#	18841
#	43804
#	58993
#	76479
#	96694
#	121846
#	145257
#	168482
#	195462
#	217886
#	237664
#	261089
#	283879
#	301331
#	316231
#
# Disc length: 4415 seconds
#
# Revision: 0
# Processed by: cddbd v1.5.2PL0 Copyright (c) Steve Scherf et al.
# Submitted via: CDex 1.70beta2
#
DISCID=ed113d10
DTITLE=Meeco - Souvenirs of LOve
DYEAR=2015
DGENRE=Jazz
TTITLE0=Souvenirs of LOve
TTITLE1=Make my dreams come true
TTITLE2=Every day
TTITLE3=Times have changed
TTITLE4=If only I kinew
TTITLE5=Can´t get you out of my mind
TTITLE6=Paris at night
TTITLE7=Your eyes
TTITLE8=Words of love
TTITLE9=For you
TTITLE10=Farewell
TTITLE11=Paris at night (Instrumental)
TTITLE12=Your eyes  (Instrumental)
TTITLE13=Times have changed  (Instrumental)
TTITLE14=If only I knew  (Instrumental)
TTITLE15=Every Day  (Instrumental)
EXTD=YEAR: 2015
EXTT0=
EXTT1=
EXTT2=
EXTT3=
EXTT4=
EXTT5=
EXTT6=
EXTT7=
EXTT8=
EXTT9=
EXTT10=
EXTT11=
EXTT12=
EXTT13=
EXTT14=
EXTT15=
PLAYORDER=
